<svg width="255" height="246" viewBox="0 0 255 246" fill="none" xmlns="http://www.w3.org/2000/svg">
<path fill-rule="evenodd" clip-rule="evenodd" d="M85.7642 88.2548H140.738C142.636 88.2494 144.471 87.5708 145.915 86.34C147.359 85.1091 148.319 83.4059 148.624 81.5337C152.242 58.05 152.242 34.1512 148.624 10.6676C148.319 8.79536 147.359 7.09216 145.915 5.86131C144.471 4.63045 142.636 3.95187 140.738 3.94642H85.7642C84.5606 3.94272 83.3721 4.21345 82.289 4.73799C81.206 5.26254 80.2569 6.02708 79.5141 6.97344C78.7579 7.92867 78.2296 9.0437 77.9696 10.2337C77.7095 11.4237 77.7245 12.6572 78.0134 13.8406C83.0803 35.0491 83.0804 57.1518 78.0137 78.3604C77.7247 79.5437 77.7095 80.7774 77.9696 81.9674C78.2296 83.1575 78.7579 84.2726 79.5142 85.2278C80.2571 86.1741 81.2061 86.9386 82.2891 87.4632C83.3722 87.9877 84.5606 88.2585 85.7642 88.2548ZM84.0952 8.45981C84.6154 8.20809 85.1862 8.07826 85.7641 8.0802L140.738 8.08019C141.65 8.07989 142.532 8.40291 143.227 8.99175C143.923 9.58058 144.387 10.397 144.536 11.2956C148.09 34.363 148.09 57.8382 144.536 80.9056C144.387 81.8042 143.923 82.6206 143.227 83.2094C142.532 83.7983 141.65 84.1213 140.738 84.121H85.7641C85.1862 84.1229 84.6154 83.9931 84.0952 83.7413C83.575 83.4895 83.1188 83.1221 82.762 82.6677C82.3945 82.2023 82.1381 81.6593 82.0123 81.08C81.8865 80.5006 81.8946 79.9002 82.036 79.3245C87.2541 57.4821 87.254 34.719 82.0357 12.8767C81.8944 12.3009 81.8864 11.7003 82.0123 11.1209C82.1381 10.5414 82.3946 9.99831 82.7621 9.53282C83.1191 9.0785 83.575 8.71153 84.0952 8.45981Z" fill="#25272B"/>
<path d="M128.742 27.9574H99.8936C98.7969 27.9562 97.7456 27.5204 96.9701 26.7454C96.1947 25.9705 95.7585 24.9197 95.7573 23.8238V22.2084C95.7585 21.1125 96.1947 20.0618 96.9701 19.2868C97.7456 18.5119 98.7969 18.076 99.8936 18.0748H128.742C129.838 18.076 130.89 18.5119 131.665 19.2868C132.441 20.0618 132.877 21.1125 132.878 22.2084V23.8238C132.877 24.9198 132.441 25.9705 131.665 26.7454C130.89 27.5204 129.838 27.9562 128.742 27.9574Z" fill="#25272B"/>
<path d="M128.742 48.3686H99.8936C98.7969 48.3675 97.7456 47.9316 96.9701 47.1566C96.1947 46.3817 95.7585 45.331 95.7573 44.235V42.6196C95.7585 41.5237 96.1947 40.473 96.9701 39.698C97.7456 38.9231 98.7969 38.4872 99.8936 38.486H128.742C129.838 38.4872 130.89 38.9231 131.665 39.698C132.441 40.473 132.877 41.5237 132.878 42.6196V44.235C132.877 45.331 132.441 46.3817 131.665 47.1566C130.89 47.9316 129.838 48.3675 128.742 48.3686Z" fill="#25272B"/>
<path d="M128.742 68.7799H99.8936C98.7969 68.7787 97.7456 68.3428 96.9701 67.5678C96.1947 66.7929 95.7585 65.7422 95.7573 64.6462V63.0309C95.7585 61.9349 96.1947 60.8842 96.9701 60.1092C97.7456 59.3343 98.7969 58.8984 99.8936 58.8972H128.742C129.838 58.8984 130.89 59.3343 131.665 60.1092C132.441 60.8842 132.877 61.9349 132.878 63.0309V64.6462C132.877 65.7422 132.441 66.7929 131.665 67.5678C130.89 68.3428 129.838 68.7787 128.742 68.7799Z" fill="#25272B"/>
<path fill-rule="evenodd" clip-rule="evenodd" d="M189.175 140.616H244.149C246.047 140.611 247.882 139.932 249.326 138.701C250.77 137.471 251.73 135.767 252.035 133.895C255.653 110.412 255.653 86.5128 252.035 63.0291C251.73 61.1569 250.77 59.4537 249.326 58.2228C247.882 56.992 246.047 56.3134 244.149 56.308H189.175C187.971 56.3043 186.783 56.575 185.7 57.0995C184.617 57.6241 183.668 58.3886 182.925 59.335C182.169 60.2902 181.64 61.4053 181.38 62.5952C181.12 63.7852 181.135 65.0188 181.424 66.2021C186.491 87.4106 186.491 109.513 181.425 130.722C181.136 131.905 181.12 133.139 181.38 134.329C181.64 135.519 182.169 136.634 182.925 137.589C183.668 138.536 184.617 139.3 185.7 139.825C186.783 140.349 187.972 140.62 189.175 140.616ZM187.506 60.8213C188.026 60.5696 188.597 60.4398 189.175 60.4417L244.149 60.4417C245.061 60.4414 245.943 60.7645 246.638 61.3533C247.334 61.9421 247.797 62.7585 247.947 63.6572C251.501 86.7246 251.501 110.2 247.947 133.267C247.797 134.166 247.334 134.982 246.638 135.571C245.943 136.16 245.061 136.483 244.149 136.483H189.175C188.597 136.484 188.026 136.355 187.506 136.103C186.986 135.851 186.53 135.484 186.173 135.029C185.805 134.564 185.549 134.021 185.423 133.441C185.297 132.862 185.305 132.262 185.447 131.686C190.665 109.844 190.665 87.0805 185.447 65.2383C185.305 64.6624 185.297 64.0619 185.423 63.4824C185.549 62.903 185.805 62.3599 186.173 61.8944C186.53 61.44 186.986 61.0731 187.506 60.8213Z" fill="#25272B"/>
<path d="M232.153 90.6535H203.304C202.208 90.6523 201.156 90.2165 200.381 89.4415C199.606 88.6666 199.169 87.6158 199.168 86.5199V84.9045C199.169 83.8086 199.606 82.7579 200.381 81.9829C201.156 81.208 202.208 80.7721 203.304 80.7709H232.153C233.249 80.7721 234.301 81.208 235.076 81.9829C235.851 82.7579 236.288 83.8086 236.289 84.9045V86.5199C236.288 87.6159 235.851 88.6666 235.076 89.4415C234.301 90.2165 233.249 90.6523 232.153 90.6535Z" fill="#25272B"/>
<path d="M232.153 111.065H203.304C202.208 111.064 201.156 110.628 200.381 109.853C199.606 109.078 199.169 108.027 199.168 106.931V105.316C199.169 104.22 199.606 103.169 200.381 102.394C201.156 101.619 202.208 101.183 203.304 101.182H232.153C233.249 101.183 234.301 101.619 235.076 102.394C235.851 103.169 236.288 104.22 236.289 105.316V106.931C236.288 108.027 235.851 109.078 235.076 109.853C234.301 110.628 233.249 111.064 232.153 111.065Z" fill="#25272B"/>
<path fill-rule="evenodd" clip-rule="evenodd" d="M79.5595 200.212H134.534C136.514 200.206 138.428 199.498 139.934 198.214C141.441 196.929 142.442 195.152 142.76 193.199C146.384 169.68 146.384 145.746 142.76 122.228C142.442 120.275 141.441 118.497 139.934 117.213C138.428 115.929 136.514 115.221 134.534 115.215H79.5595C78.3039 115.211 77.0639 115.493 75.9339 116.041C74.804 116.588 73.8138 117.386 73.0388 118.373C72.2502 119.369 71.6993 120.532 71.4281 121.773C71.1569 123.013 71.1724 124.3 71.4737 125.534C76.5278 146.689 76.5279 168.737 71.474 189.893C71.1726 191.127 71.1569 192.413 71.4281 193.654C71.6993 194.895 72.2502 196.058 73.039 197.054C73.814 198.041 74.8041 198.839 75.934 199.386C77.0639 199.933 78.3039 200.216 79.5595 200.212ZM123.057 157.429C123.057 166.181 115.958 173.275 107.2 173.275C98.4432 173.275 91.344 166.181 91.344 157.429C91.344 148.678 98.4432 141.583 107.2 141.583C115.958 141.583 123.057 148.678 123.057 157.429Z" fill="#25272B"/>
<path d="M114.784 155.362H109.269V149.851C109.269 149.302 109.051 148.777 108.663 148.389C108.275 148.001 107.749 147.784 107.2 147.784C106.652 147.784 106.126 148.001 105.738 148.389C105.35 148.777 105.132 149.302 105.132 149.851V155.362H99.6169C99.0684 155.362 98.5423 155.58 98.1545 155.968C97.7666 156.355 97.5487 156.881 97.5487 157.429C97.5487 157.977 97.7666 158.503 98.1545 158.891C98.5423 159.278 99.0684 159.496 99.6169 159.496H105.132V165.008C105.132 165.556 105.35 166.082 105.738 166.469C106.126 166.857 106.652 167.075 107.2 167.075C107.749 167.075 108.275 166.857 108.663 166.469C109.051 166.082 109.269 165.556 109.269 165.008V159.496H114.784C115.332 159.496 115.858 159.278 116.246 158.891C116.634 158.503 116.852 157.977 116.852 157.429C116.852 156.881 116.634 156.355 116.246 155.968C115.858 155.58 115.332 155.362 114.784 155.362Z" fill="#25272B"/>
<path d="M127.193 11.7125H98.2381C97.4156 11.7115 96.627 11.3846 96.0454 10.8034C95.4638 10.2221 95.1367 9.43408 95.1357 8.6121V3.10036C95.1367 2.27837 95.4638 1.49032 96.0454 0.909096C96.627 0.327867 97.4156 0.000926357 98.2381 0H127.193C128.016 0.000926357 128.804 0.327867 129.386 0.909096C129.967 1.49032 130.294 2.27837 130.295 3.10036V8.6121C130.294 9.43408 129.967 10.2221 129.386 10.8034C128.804 11.3846 128.016 11.7115 127.193 11.7125Z" fill="#25272B"/>
<path d="M231.983 64.763H203.028C202.205 64.7621 201.417 64.4351 200.835 63.8539C200.253 63.2727 199.926 62.4846 199.925 61.6626V56.1509C199.926 55.3289 200.253 54.5409 200.835 53.9596C201.417 53.3784 202.205 53.0515 203.028 53.0505H231.983C232.805 53.0515 233.594 53.3784 234.175 53.9596C234.757 54.5409 235.084 55.3289 235.085 56.1509V61.6626C235.084 62.4846 234.757 63.2727 234.175 63.8539C233.594 64.4351 232.805 64.7621 231.983 64.763Z" fill="#25272B"/>
<path fill-rule="evenodd" clip-rule="evenodd" d="M4.91185 224.181L55.6785 245.26C57.4334 245.983 59.388 246.06 61.1942 245.477C63.0005 244.894 64.541 243.689 65.5415 242.078C77.8986 221.778 87.0741 199.709 92.749 176.635C93.1861 174.789 92.9533 172.848 92.0922 171.158C91.2311 169.468 89.7975 168.137 88.0468 167.405L37.2802 146.325C36.1702 145.86 34.9687 145.655 33.7671 145.724C32.5656 145.793 31.3956 146.135 30.3463 146.724C29.2812 147.316 28.3653 148.143 27.6683 149.143C26.9713 150.142 26.5115 151.287 26.324 152.49C22.8605 174.018 14.3748 194.429 1.55338 212.072C0.832094 213.054 0.344512 214.187 0.127734 215.386C-0.0890448 216.585 -0.029307 217.817 0.30242 218.989C0.625085 220.148 1.20797 221.218 2.00672 222.118C2.80548 223.017 3.79905 223.723 4.91185 224.181ZM34.0061 149.853C34.5831 149.82 35.16 149.919 35.693 150.143L86.4597 171.222C87.3016 171.571 87.9921 172.208 88.4083 173.018C88.8245 173.829 88.9393 174.76 88.7323 175.648C83.1579 198.312 74.1451 219.991 62.0072 239.93C61.5241 240.702 60.7824 241.279 59.9141 241.556C59.0457 241.833 58.1072 241.793 57.2656 241.443L6.49888 220.364C5.96438 220.144 5.48711 219.805 5.1034 219.373C4.71969 218.941 4.43946 218.427 4.28442 217.87C4.12373 217.3 4.09545 216.7 4.20172 216.117C4.30798 215.534 4.54598 214.982 4.89762 214.505C18.1022 196.335 26.8415 175.314 30.4084 153.143C30.499 152.557 30.7222 151.999 31.0609 151.512C31.3996 151.025 31.845 150.622 32.3631 150.333C32.8671 150.05 33.429 149.886 34.0061 149.853Z" fill="#25272B"/>
<path d="M62.7242 197.067L36.0839 186.005C35.0716 185.583 34.2681 184.778 33.8495 183.765C33.431 182.752 33.4316 181.614 33.8512 180.602L34.4714 179.11C34.8933 178.098 35.6994 177.295 36.7131 176.877C37.7267 176.459 38.865 176.459 39.8781 176.879L66.5184 187.94C67.5306 188.362 68.3342 189.167 68.7528 190.18C69.1713 191.193 69.1707 192.331 68.751 193.344L68.1309 194.835C67.709 195.847 66.9028 196.65 65.8892 197.068C64.8756 197.486 63.7373 197.486 62.7242 197.067Z" fill="#25272B"/>
<path d="M54.8878 215.916L28.2475 204.854C27.2352 204.432 26.4317 203.627 26.0131 202.614C25.5945 201.601 25.5951 200.463 26.0148 199.451L26.635 197.959C27.0569 196.947 27.863 196.144 28.8767 195.726C29.8903 195.308 31.0285 195.308 32.0417 195.728L58.682 206.789C59.6943 207.211 60.4978 208.017 60.9164 209.03C61.3349 210.042 61.3343 211.18 60.9147 212.193L60.2945 213.684C59.8726 214.696 59.0664 215.499 58.0528 215.917C57.0392 216.336 55.9009 216.335 54.8878 215.916Z" fill="#25272B"/>
<path d="M73.3989 170.576C73.0001 170.576 72.6052 170.498 72.2357 170.348L45.3917 159.502C44.6295 159.193 44.0211 158.595 43.6999 157.838C43.3787 157.081 43.3709 156.228 43.6783 155.466L45.7456 150.356C46.0541 149.594 46.6529 148.985 47.4104 148.664C48.1678 148.343 49.0219 148.336 49.7846 148.644L76.6287 159.49C77.3908 159.799 77.9993 160.397 78.3205 161.154C78.6417 161.911 78.6494 162.764 78.3421 163.526L76.2747 168.636C76.0425 169.209 75.6449 169.699 75.1327 170.044C74.6205 170.39 74.0169 170.575 73.3989 170.576Z" fill="#25272B"/>
</svg>
