<svg width="243" height="234" viewBox="0 0 243 234" fill="none" xmlns="http://www.w3.org/2000/svg">
<path fill-rule="evenodd" clip-rule="evenodd" d="M82.4036 84.1116H134.649C136.453 84.1065 138.196 83.4616 139.569 82.2918C140.941 81.122 141.854 79.5034 142.144 77.7241C145.582 55.4061 145.582 32.6937 142.144 10.3757C141.854 8.59641 140.941 6.97775 139.569 5.808C138.196 4.63825 136.453 3.99334 134.649 3.98816H82.4036C81.2598 3.98465 80.1302 4.24194 79.1009 4.74044C78.0716 5.23895 77.1697 5.96554 76.4637 6.86493C75.7451 7.77275 75.2431 8.83242 74.9959 9.96334C74.7488 11.0943 74.763 12.2666 75.0376 13.3912C79.8529 33.5469 79.853 54.5525 75.0379 74.7083C74.7631 75.8329 74.7488 77.0053 74.9959 78.1363C75.243 79.2673 75.7451 80.3271 76.4639 81.2349C77.1699 82.1342 78.0718 82.8608 79.1011 83.3593C80.1303 83.8578 81.2598 84.1151 82.4036 84.1116ZM80.8174 8.27755C81.3118 8.03832 81.8543 7.91494 82.4036 7.91678L134.649 7.91677C135.515 7.91648 136.353 8.22347 137.014 8.78308C137.675 9.34268 138.116 10.1186 138.258 10.9726C141.635 32.895 141.635 55.2048 138.258 77.1272C138.116 77.9812 137.675 78.7571 137.014 79.3167C136.353 79.8763 135.515 80.1833 134.649 80.183H82.4036C81.8543 80.1849 81.3118 80.0615 80.8174 79.8222C80.3231 79.5829 79.8895 79.2337 79.5504 78.8019C79.2012 78.3596 78.9575 77.8435 78.838 77.2929C78.7184 76.7423 78.7261 76.1717 78.8605 75.6246C83.8195 54.8665 83.8194 33.2333 78.8602 12.4752C78.7259 11.9279 78.7183 11.3572 78.8379 10.8065C78.9575 10.2558 79.2013 9.73968 79.5506 9.29729C79.8898 8.86553 80.323 8.51677 80.8174 8.27755Z" fill="#1E293B"/>
<path d="M123.248 26.8073H95.8316C94.7894 26.8062 93.7903 26.3919 93.0533 25.6554C92.3164 24.9189 91.9018 23.9204 91.9007 22.8788V21.3437C91.9018 20.3021 92.3164 19.3036 93.0533 18.5671C93.7903 17.8306 94.7894 17.4163 95.8316 17.4152H123.248C124.29 17.4163 125.289 17.8306 126.026 18.5671C126.763 19.3036 127.178 20.3021 127.179 21.3437V22.8789C127.178 23.9204 126.763 24.919 126.026 25.6554C125.289 26.3919 124.29 26.8062 123.248 26.8073Z" fill="#1E293B"/>
<path d="M123.248 46.2053H95.8316C94.7894 46.2042 93.7903 45.7899 93.0533 45.0534C92.3164 44.317 91.9018 43.3184 91.9007 42.2769V40.7417C91.9018 39.7001 92.3164 38.7016 93.0533 37.9651C93.7903 37.2286 94.7894 36.8144 95.8316 36.8132H123.248C124.29 36.8144 125.289 37.2286 126.026 37.9651C126.763 38.7016 127.178 39.7001 127.179 40.7417V42.2769C127.178 43.3184 126.763 44.317 126.026 45.0534C125.289 45.7899 124.29 46.2042 123.248 46.2053Z" fill="#1E293B"/>
<path d="M123.248 65.6034H95.8316C94.7894 65.6022 93.7903 65.188 93.0533 64.4515C92.3164 63.715 91.9018 62.7164 91.9007 61.6749V60.1397C91.9018 59.0982 92.3164 58.0996 93.0533 57.3631C93.7903 56.6267 94.7894 56.2124 95.8316 56.2113H123.248C124.29 56.2124 125.289 56.6267 126.026 57.3631C126.763 58.0996 127.178 59.0982 127.179 60.1397V61.6749C127.178 62.7164 126.763 63.715 126.026 64.4515C125.289 65.188 124.29 65.6022 123.248 65.6034Z" fill="#1E293B"/>
<path fill-rule="evenodd" clip-rule="evenodd" d="M180.681 133.874H232.927C234.73 133.869 236.474 133.224 237.846 132.054C239.219 130.884 240.131 129.266 240.421 127.486C243.86 105.169 243.86 82.456 240.421 60.1381C240.131 58.3588 239.219 56.7401 237.846 55.5704C236.474 54.4006 234.73 53.7557 232.927 53.7506H180.681C179.537 53.747 178.408 54.0043 177.379 54.5028C176.349 55.0013 175.447 55.7279 174.741 56.6273C174.023 57.5351 173.521 58.5948 173.274 59.7257C173.026 60.8567 173.041 62.029 173.315 63.1536C178.131 83.3093 178.131 104.315 173.316 124.471C173.041 125.595 173.026 126.768 173.274 127.899C173.521 129.03 174.023 130.089 174.742 130.997C175.447 131.897 176.349 132.623 177.379 133.122C178.408 133.62 179.537 133.877 180.681 133.874ZM179.095 58.0399C179.589 57.8007 180.132 57.6773 180.681 57.6792L232.927 57.6791C233.793 57.6789 234.631 57.9859 235.292 58.5455C235.953 59.1051 236.394 59.881 236.536 60.735C239.913 82.6574 239.913 104.967 236.536 126.89C236.394 127.744 235.953 128.519 235.292 129.079C234.631 129.639 233.793 129.946 232.927 129.945H180.681C180.132 129.947 179.589 129.824 179.095 129.585C178.601 129.345 178.167 128.996 177.828 128.564C177.479 128.122 177.235 127.606 177.116 127.055C176.996 126.505 177.004 125.934 177.138 125.387C182.097 104.629 182.097 82.9956 177.138 62.2376C177.004 61.6903 176.996 61.1196 177.116 60.5689C177.235 60.0182 177.479 59.5021 177.828 59.0597C178.167 58.6279 178.601 58.2791 179.095 58.0399Z" fill="#1E293B"/>
<path d="M221.525 86.3912H194.109C193.067 86.3901 192.068 85.9759 191.331 85.2394C190.594 84.5029 190.179 83.5043 190.178 82.4628V80.9276C190.179 79.8861 190.594 78.8875 191.331 78.151C192.068 77.4145 193.067 77.0003 194.109 76.9991H221.525C222.568 77.0003 223.567 77.4145 224.304 78.151C225.041 78.8875 225.455 79.8861 225.456 80.9276V82.4628C225.455 83.5044 225.041 84.5029 224.304 85.2394C223.567 85.9759 222.568 86.3901 221.525 86.3912Z" fill="#1E293B"/>
<path d="M221.525 105.789H194.109C193.067 105.788 192.068 105.374 191.331 104.637C190.594 103.901 190.179 102.902 190.178 101.861V100.326C190.179 99.2841 190.594 98.2855 191.331 97.549C192.068 96.8125 193.067 96.3983 194.109 96.3972H221.525C222.568 96.3983 223.567 96.8125 224.304 97.549C225.041 98.2855 225.455 99.2841 225.456 100.326V101.861C225.455 102.902 225.041 103.901 224.304 104.637C223.567 105.374 222.568 105.788 221.525 105.789Z" fill="#1E293B"/>
<path fill-rule="evenodd" clip-rule="evenodd" d="M76.5069 190.511H128.752C130.634 190.506 132.453 189.833 133.885 188.612C135.317 187.392 136.268 185.703 136.571 183.846C140.014 161.495 140.014 138.749 136.571 116.398C136.268 114.542 135.317 112.853 133.885 111.632C132.453 110.412 130.634 109.739 128.752 109.733H76.5069C75.3136 109.73 74.1352 109.998 73.0613 110.518C71.9874 111.038 71.0464 111.796 70.3099 112.735C69.5604 113.681 69.0369 114.786 68.7791 115.966C68.5214 117.145 68.5362 118.367 68.8224 119.54C73.6257 139.646 73.6258 160.599 68.8228 180.704C68.5363 181.877 68.5214 183.1 68.7792 184.279C69.0369 185.458 69.5605 186.563 70.31 187.51C71.0466 188.448 71.9875 189.206 73.0614 189.726C74.1352 190.247 75.3136 190.515 76.5069 190.511ZM117.845 149.852C117.845 158.169 111.098 164.912 102.776 164.912C94.4532 164.912 87.7065 158.169 87.7065 149.852C87.7065 141.535 94.4532 134.793 102.776 134.793C111.098 134.793 117.845 141.535 117.845 149.852Z" fill="#1E293B"/>
<path d="M109.983 147.888H104.741V142.65C104.741 142.129 104.534 141.629 104.166 141.261C103.797 140.892 103.297 140.685 102.776 140.685C102.254 140.685 101.754 140.892 101.386 141.261C101.017 141.629 100.81 142.129 100.81 142.65V147.888H95.5687C95.0474 147.888 94.5474 148.095 94.1788 148.463C93.8102 148.832 93.6031 149.331 93.6031 149.852C93.6031 150.373 93.8102 150.873 94.1788 151.241C94.5474 151.61 95.0474 151.817 95.5687 151.817H100.81V157.055C100.81 157.576 101.017 158.075 101.386 158.444C101.754 158.812 102.254 159.019 102.776 159.019C103.297 159.019 103.797 158.812 104.166 158.444C104.534 158.075 104.741 157.576 104.741 157.055V151.817H109.983C110.504 151.817 111.004 151.61 111.373 151.241C111.741 150.873 111.948 150.373 111.948 149.852C111.948 149.331 111.741 148.832 111.373 148.463C111.004 148.095 110.504 147.888 109.983 147.888Z" fill="#1E293B"/>
<path d="M121.776 11.3687H94.2583C93.4767 11.3678 92.7273 11.0571 92.1745 10.5047C91.6218 9.95236 91.3109 9.20343 91.31 8.42225V3.1841C91.3109 2.40292 91.6218 1.65399 92.1745 1.10161C92.7273 0.549233 93.4767 0.238521 94.2583 0.23764H121.776C122.558 0.238521 123.307 0.549233 123.86 1.10161C124.413 1.65399 124.724 2.40292 124.724 3.1841V8.42225C124.724 9.20343 124.413 9.95236 123.86 10.5047C123.307 11.0571 122.558 11.3678 121.776 11.3687Z" fill="#1E293B"/>
<path d="M221.364 61.7859H193.846C193.065 61.785 192.315 61.4743 191.762 60.9219C191.21 60.3695 190.899 59.6206 190.898 58.8394V53.6013C190.899 52.8201 191.21 52.0712 191.762 51.5188C192.315 50.9664 193.065 50.6557 193.846 50.6548H221.364C222.146 50.6557 222.895 50.9664 223.448 51.5188C224.001 52.0712 224.311 52.8201 224.312 53.6013V58.8394C224.311 59.6206 224.001 60.3695 223.448 60.9219C222.895 61.4743 222.146 61.785 221.364 61.7859Z" fill="#1E293B"/>
<path fill-rule="evenodd" clip-rule="evenodd" d="M5.56467 213.291L53.8113 233.324C55.4791 234.011 57.3367 234.084 59.0533 233.53C60.7698 232.976 62.2339 231.831 63.1847 230.299C74.9285 211.007 83.6485 190.033 89.0417 168.105C89.4571 166.351 89.2359 164.506 88.4175 162.9C87.5992 161.293 86.2367 160.029 84.5729 159.333L36.3263 139.3C35.2714 138.858 34.1295 138.662 32.9876 138.728C31.8457 138.794 30.7338 139.119 29.7366 139.679C28.7244 140.241 27.8539 141.027 27.1915 141.977C26.5291 142.927 26.0922 144.015 25.9139 145.158C22.6224 165.618 14.5579 185.016 2.37291 201.783C1.68743 202.716 1.22405 203.793 1.01803 204.932C0.812012 206.072 0.868785 207.243 1.18405 208.357C1.49069 209.458 2.04465 210.475 2.80375 211.33C3.56285 212.185 4.50711 212.855 5.56467 213.291ZM33.2147 142.652C33.7631 142.621 34.3114 142.715 34.8179 142.928L83.0646 162.96C83.8647 163.292 84.5209 163.897 84.9165 164.668C85.312 165.438 85.4211 166.323 85.2244 167.166C79.9267 188.706 71.3613 209.308 59.8258 228.258C59.3668 228.992 58.6619 229.539 57.8367 229.803C57.0114 230.066 56.1195 230.028 55.3196 229.696L7.07291 209.663C6.56494 209.454 6.11137 209.132 5.74671 208.721C5.38204 208.311 5.11572 207.822 4.96838 207.293C4.81567 206.751 4.78879 206.181 4.88978 205.627C4.99076 205.072 5.21695 204.548 5.55114 204.095C18.1002 186.827 26.4057 166.849 29.7956 145.778C29.8817 145.221 30.0938 144.692 30.4157 144.229C30.7376 143.766 31.1609 143.383 31.6532 143.108C32.1323 142.84 32.6663 142.684 33.2147 142.652Z" fill="#1E293B"/>
<path d="M60.5073 187.522L35.1894 177.01C34.2274 176.609 33.4637 175.843 33.0659 174.881C32.6681 173.918 32.6687 172.837 33.0675 171.874L33.6569 170.457C34.0579 169.495 34.824 168.732 35.7873 168.335C36.7506 167.937 37.8324 167.938 38.7953 168.336L64.1132 178.849C65.0752 179.249 65.8388 180.015 66.2366 180.978C66.6344 181.94 66.6338 183.022 66.235 183.984L65.6456 185.402C65.2447 186.363 64.4785 187.126 63.5152 187.524C62.5519 187.921 61.4702 187.921 60.5073 187.522Z" fill="#1E293B"/>
<path d="M53.0598 205.435L27.7419 194.923C26.7799 194.522 26.0163 193.757 25.6185 192.794C25.2207 191.831 25.2213 190.75 25.6201 189.788L26.2095 188.37C26.6104 187.409 27.3766 186.646 28.3399 186.248C29.3032 185.851 30.385 185.851 31.3478 186.25L56.6658 196.762C57.6278 197.163 58.3914 197.929 58.7892 198.891C59.187 199.854 59.1864 200.935 58.7876 201.897L58.1982 203.315C57.7973 204.276 57.0311 205.04 56.0678 205.437C55.1045 205.835 54.0227 205.834 53.0598 205.435Z" fill="#1E293B"/>
<path d="M70.6522 162.347C70.2732 162.346 69.8978 162.273 69.5467 162.13L44.0352 151.822C43.3108 151.529 42.7326 150.96 42.4273 150.241C42.1221 149.522 42.1147 148.711 42.4068 147.986L44.3715 143.13C44.6647 142.406 45.2338 141.827 45.9536 141.522C46.6735 141.217 47.4851 141.21 48.21 141.503L73.7216 151.811C74.4459 152.104 75.0241 152.673 75.3294 153.392C75.6347 154.111 75.642 154.922 75.3499 155.647L73.3852 160.503C73.1645 161.047 72.7866 161.513 72.2998 161.841C71.8131 162.169 71.2394 162.345 70.6522 162.347Z" fill="#1E293B"/>
</svg>
