<svg width="90" height="92" viewBox="0 0 90 92" fill="none" xmlns="http://www.w3.org/2000/svg">
<path d="M89.975 47.0017C89.975 43.9017 89.675 40.7017 89.175 37.7017H45.875V55.4017H70.675C69.675 61.1017 66.375 66.1018 61.475 69.3018L76.275 80.8018C84.975 72.7017 89.975 60.9017 89.975 47.0017Z" fill="#4280EF"/>
<path d="M45.875 91.8018C58.275 91.8018 68.675 87.7018 76.275 80.7018L61.475 69.3018C57.375 72.1018 52.075 73.7018 45.875 73.7018C33.875 73.7018 23.775 65.6017 20.075 54.8017L4.875 66.5017C12.675 82.0017 28.475 91.8018 45.875 91.8018Z" fill="#34A353"/>
<path d="M20.075 54.7017C18.175 49.0017 18.175 42.8017 20.075 37.1017L4.875 25.3017C-1.625 38.3017 -1.625 53.6017 4.875 66.5017L20.075 54.7017Z" fill="#F6B704"/>
<path d="M45.875 18.2017C52.375 18.1017 58.775 20.6017 63.475 25.1017L76.575 11.9017C68.275 4.10174 57.275 -0.0982547 45.875 0.00174529C28.475 0.00174529 12.675 9.80175 4.875 25.3017L20.075 37.1017C23.775 26.2017 33.875 18.2017 45.875 18.2017Z" fill="#E54335"/>
</svg>
