<svg width="83" height="21" viewBox="0 0 83 21" fill="none" xmlns="http://www.w3.org/2000/svg">
<g clip-path="url(#clip0_7_29)">
<path d="M16 0V3.46H9.89V20.06H6.05V3.46H0V0H16Z" fill="white"/>
<path d="M30.0799 12.13C30.0799 15.11 29.5099 17.2267 28.3699 18.48C27.2299 19.7333 25.2833 20.3567 22.5299 20.35C19.7299 20.35 17.7666 19.7367 16.6399 18.51C15.5133 17.2833 14.9466 15.1567 14.9399 12.13C14.9399 9.13 15.5199 7.06 16.6699 5.81C17.8199 4.56 19.7799 3.94 22.5299 3.94C25.2799 3.94 27.2499 4.55 28.3799 5.78C29.5099 7.01 30.0799 9.12 30.0799 12.13ZM18.6599 12.13C18.6599 14.13 18.8999 15.38 19.3899 16C19.8799 16.62 20.9299 16.93 22.5299 16.93C24.1299 16.93 25.1099 16.61 25.6199 15.98C26.1299 15.35 26.3699 14.07 26.3699 12.13C26.3699 10.19 26.1299 8.84 25.6499 8.22C25.1699 7.6 24.1299 7.29 22.5299 7.29C20.9299 7.29 19.9099 7.61 19.4099 8.29C18.9099 8.97 18.6599 10.15 18.6599 12.1V12.13Z" fill="white"/>
<path d="M57.44 20.35C56.7179 20.4108 55.991 20.3242 55.3035 20.0956C54.6159 19.8669 53.9819 19.501 53.44 19.02C52.9673 18.4734 52.6081 17.8383 52.3832 17.1516C52.1583 16.4649 52.0722 15.7403 52.13 15.02V4.26001H55.84V14.56C55.8092 14.8825 55.8506 15.2078 55.9613 15.5122C56.0721 15.8167 56.2492 16.0926 56.48 16.32C57.091 16.7329 57.8253 16.9235 58.56 16.86C59.1749 16.8601 59.7882 16.7965 60.39 16.67C60.9764 16.548 61.5518 16.3774 62.11 16.16V4.26001H65.82V20.06H62.43L62.3 19H62.21C61.4027 19.4106 60.5591 19.7453 59.69 20C58.9599 20.221 58.2026 20.3388 57.44 20.35Z" fill="white"/>
<path d="M81.85 16.19V19.19C81.0625 19.5955 80.2151 19.8724 79.34 20.01C78.1632 20.2334 76.9678 20.3439 75.77 20.34C73.2633 20.34 71.4567 19.7 70.35 18.42C69.2433 17.14 68.6933 15.0333 68.7 12.1C68.7 9.26 69.2767 7.19 70.43 5.89C71.58 4.59 73.43 3.94 75.9 3.94C78.37 3.94 80 4.44 81 5.44C82 6.44 82.51 8.16 82.51 10.59C82.51 11.04 82.51 11.45 82.51 11.82C82.51 12.19 82.45 12.71 82.39 13.38H72.45C72.4053 13.8786 72.4601 14.381 72.6112 14.8583C72.7622 15.3355 73.0066 15.778 73.33 16.16C74.2 16.7815 75.2661 17.0658 76.33 16.96C77.334 16.9598 78.3367 16.8863 79.33 16.74C80.1841 16.6286 81.0272 16.4446 81.85 16.19ZM75.9 7.19C74.9337 7.08087 73.9634 7.35759 73.2 7.96C72.6136 8.76144 72.3462 9.75236 72.45 10.74H79.13V10.07C79.1686 9.66345 79.1237 9.2533 78.9982 8.86469C78.8727 8.47608 78.6691 8.11719 78.4 7.81C77.6651 7.31542 76.7822 7.08938 75.9 7.17V7.19Z" fill="white"/>
<path d="M48.88 5.17C48.6189 4.0491 48.071 3.01531 47.29 2.17C46.4907 1.37038 45.4934 0.797499 44.4 0.51C43.1477 0.190501 41.8622 0.0193266 40.57 0L33.09 7.5V17.61C33.09 18.2598 33.3481 18.8829 33.8076 19.3424C34.267 19.8019 34.8902 20.06 35.54 20.06H39.54C43 20.06 45.54 19.26 47.06 17.65C48.58 16.04 49.39 13.49 49.39 10.02C49.4211 8.38847 49.2498 6.75937 48.88 5.17Z" fill="white"/>
<path d="M34.13 7.5H38.13C38.7807 7.50001 39.4049 7.2422 39.8659 6.78302C40.327 6.32384 40.5873 5.7007 40.59 5.05V0L33.09 7.48L34.13 7.5Z" fill="#808080"/>
</g>
<defs>
<clipPath id="clip0_7_29">
<rect width="82.53" height="20.35" fill="white"/>
</clipPath>
</defs>
</svg>
